<svg width="127" height="126" viewBox="0 0 127 126" fill="none" xmlns="http://www.w3.org/2000/svg">
<circle cx="63.5668" cy="62.8325" r="62.8325" fill="url(#paint0_linear_45001_34)"/>
<path d="M94.2522 30C94.2522 30 90.3768 37.909 79.3248 37.909C79.3248 37.909 73.1815 53.0213 64.3397 41.1596C55.4986 53.022 49.3553 37.909 49.3553 37.909C38.3083 37.906 34.7462 30 34.7462 30C34.7462 30 27.3882 46.1279 30.9952 61.8628L34.7462 55.9438C34.7462 55.9438 34.7462 72.7835 40.3732 80.1729L43.547 69.8626C43.547 69.8626 45.8534 86.359 51.1933 90.8267L53.6457 83.0939C53.6457 83.0939 58.8524 88.0018 57.8741 102C57.8741 102 72.5626 97.1997 75.3552 83.0939L77.8077 90.8267C83.1457 86.359 85.454 69.8626 85.454 69.8626L88.6278 80.1729C94.2548 72.7835 94.2547 55.9438 94.2547 55.9438L98.0058 61.8597C101.611 46.1248 94.2522 30 94.2522 30Z" stroke="#E9C664" stroke-width="3" stroke-linecap="round" stroke-linejoin="round"/>
<defs>
<linearGradient id="paint0_linear_45001_34" x1="63.5668" y1="0" x2="63.5668" y2="125.665" gradientUnits="userSpaceOnUse">
<stop stop-color="#262626"/>
<stop offset="1"/>
</linearGradient>
</defs>
</svg>
