<svg width="126" height="126" viewBox="0 0 126 126" fill="none" xmlns="http://www.w3.org/2000/svg">
<circle cx="63.1684" cy="62.8325" r="62.8325" fill="url(#paint0_linear_1_112)"/>
<path d="M96.8741 96C96.8741 96 94.7522 86.293 101.383 71.6688C101.383 71.6688 103.505 63.6006 97.669 59.9447C97.669 59.9447 99.5983 58.0535 105 62.5288C105 62.5288 98.4645 49.3547 91.4354 46.707C91.4354 46.707 96.2102 45.4464 98.863 41.9164C98.863 41.9164 90.1089 42.4205 85.5995 40.2776C85.5995 40.2776 91.4354 38.3864 93.9559 33.0917C93.9559 33.0917 90.6543 34.4595 84.1858 34.1096C81.6724 33.9665 79.1841 33.5534 76.7684 32.878C70.726 31.2074 51.8419 27.3586 39.1768 40.0252C38.3757 38.9391 37.2591 38.0985 35.9637 37.6059C34.6683 37.1134 33.25 36.9903 31.8822 37.2516L31.9491 37.2765C32.571 37.52 33.1173 37.9102 33.5365 38.4104C33.9556 38.9105 34.2337 39.504 34.3445 40.1348C34.4553 40.7655 34.3951 41.4127 34.1697 42.0152C33.9442 42.6177 33.5609 43.1556 33.0559 43.578C31.0271 45.3216 29.3327 47.3874 28.0484 49.6831C24.91 55.2721 24.1613 61.7972 25.9584 67.8982C28.1967 75.6144 32.2909 91.2239 30.3078 95.9993C30.3078 95.9993 37.8504 79.9887 38.5136 65.1129C38.5136 65.1129 64.1113 73.4335 92.0971 65.1129C92.0993 65.1136 90.9052 86.7957 96.8741 96Z" fill="url(#paint1_linear_1_112)" stroke="#E9C664" stroke-width="3" stroke-linecap="round" stroke-linejoin="round"/>
<defs>
<linearGradient id="paint0_linear_1_112" x1="63.1684" y1="0" x2="63.1684" y2="125.665" gradientUnits="userSpaceOnUse">
<stop/>
<stop offset="1"/>
</linearGradient>
<linearGradient id="paint1_linear_1_112" x1="65" y1="31" x2="65" y2="96" gradientUnits="userSpaceOnUse">
<stop/>
<stop offset="1"/>
</linearGradient>
</defs>
</svg>
