<svg width="126" height="126" viewBox="0 0 126 126" fill="none" xmlns="http://www.w3.org/2000/svg">
<circle cx="62.8325" cy="62.8325" r="62.8325" fill="url(#paint0_linear_45001_31)"/>
<path d="M52.3895 85.9166L58.3011 65.0296C58.3011 65.0296 46.2205 36.6782 42.9386 28.7121C39.6567 20.746 46.3522 15 46.3522 15L63.1186 54.9624H63.1346L79.9018 15C79.9018 15 86.5989 20.746 83.317 28.7121C80.0351 36.6782 67.9528 65.0296 67.9528 65.0296L73.824 85.7714" stroke="#E9C664" stroke-width="3" stroke-linecap="round" stroke-linejoin="round"/>
<path d="M57.6714 96.2337C57.6716 99.1016 56.7007 101.886 54.9153 104.138C53.1299 106.39 50.6341 107.979 47.83 108.648C45.0259 109.317 42.077 109.027 39.4586 107.826C36.8402 106.624 34.7048 104.581 33.3967 102.025C32.0886 99.4695 31.6839 96.55 32.2479 93.7375C32.8119 90.925 34.3118 88.3833 36.5057 86.5221C38.6996 84.661 41.4597 83.5887 44.3412 83.4782C47.2227 83.3677 50.0577 84.2255 52.3892 85.9131" stroke="#E9C664" stroke-width="3" stroke-linecap="round" stroke-linejoin="round"/>
<path d="M73.8228 85.7714C76.1771 84.136 79.015 83.3335 81.8822 83.4921C84.7495 83.6508 87.4803 84.7614 89.6377 86.6464C91.7951 88.5314 93.2543 91.0816 93.7818 93.889C94.3093 96.6964 93.8746 99.5987 92.5473 102.131C91.2199 104.664 89.0766 106.68 86.4605 107.858C83.8443 109.036 80.9066 109.307 78.1173 108.627C75.3281 107.948 72.8486 106.357 71.0758 104.111C69.3029 101.864 68.3392 99.0906 68.3389 96.2346" stroke="#E9C664" stroke-width="3" stroke-linecap="round" stroke-linejoin="round"/>
<path d="M57.6714 96.2336C57.7558 92.6928 58.451 71.5868 63.0077 71.5868C67.5795 71.5868 68.2553 92.7012 68.3338 96.065" stroke="#E9C664" stroke-width="3" stroke-linecap="round" stroke-linejoin="round"/>
<defs>
<linearGradient id="paint0_linear_45001_31" x1="62.8325" y1="0" x2="62.8325" y2="125.665" gradientUnits="userSpaceOnUse">
<stop/>
<stop offset="1"/>
</linearGradient>
</defs>
</svg>
