<svg width="127" height="126" viewBox="0 0 127 126" fill="none" xmlns="http://www.w3.org/2000/svg">
<circle cx="63.6996" cy="62.8325" r="62.8325" fill="url(#paint0_linear_45001_32)"/>
<path d="M78.2891 48.1091C68.1062 48.3834 62.9337 57.7328 62.9337 57.7328L30.7677 65.2901C23.1411 60.9006 26.9523 51.3945 26.9523 51.3945L82.5078 38.2885" stroke="#E9C664" stroke-width="5" stroke-miterlimit="10"/>
<path d="M96.0708 35.0893L97.6441 34.7189C98.2062 34.5873 98.7882 34.5707 99.3566 34.6698C99.925 34.769 100.469 34.9821 100.956 35.2968C101.444 35.6116 101.866 36.0218 102.199 36.5039C102.531 36.986 102.767 37.5305 102.894 38.1063C103.02 38.682 103.034 39.2776 102.934 39.8588C102.835 40.44 102.625 40.9955 102.315 41.4932C102.005 41.991 101.603 42.4213 101.13 42.7594C100.658 43.0976 100.124 43.3369 99.5613 43.4637L94.437 44.6024" stroke="#E9C664" stroke-width="3" stroke-miterlimit="10"/>
<path d="M83.6713 35.0727C80.9248 43.163 70.3847 70.0567 45.6646 91.1408C44.9707 91.7241 44.4635 92.5067 44.2084 93.3878C43.9534 94.2689 43.9622 95.208 44.2338 96.0839C45.0096 98.5115 46.9809 101.319 51.9706 100.971C60.2495 100.393 92.3752 61.2089 96.1451 37.836C96.3602 36.5894 96.235 35.3063 95.7833 34.1278C95.3316 32.9494 94.571 31.9212 93.5851 31.1566C92.8912 30.6171 92.0828 30.2524 91.2254 30.0923C90.3681 29.9321 89.4859 29.981 88.6505 30.2348C87.4988 30.5664 86.4434 31.1803 85.5758 32.0233C84.7082 32.8663 84.0545 33.913 83.6713 35.0727V35.0727Z" stroke="#E9C664" stroke-width="5" stroke-miterlimit="10"/>
<path d="M88.7098 43.1183C89.7696 43.1183 90.6287 42.2393 90.6287 41.1549C90.6287 40.0705 89.7696 39.1914 88.7098 39.1914C87.6501 39.1914 86.791 40.0705 86.791 41.1549C86.791 42.2393 87.6501 43.1183 88.7098 43.1183Z" stroke="#E9C664" stroke-width="3" stroke-miterlimit="10"/>
<defs>
<linearGradient id="paint0_linear_45001_32" x1="63.6996" y1="0" x2="63.6996" y2="125.665" gradientUnits="userSpaceOnUse">
<stop stop-color="#262626"/>
<stop offset="1"/>
</linearGradient>
</defs>
</svg>
