<?xml version="1.0" standalone="no"?>
<!DOCTYPE svg PUBLIC "-//W3C//DTD SVG 20010904//EN"
 "http://www.w3.org/TR/2001/REC-SVG-20010904/DTD/svg10.dtd">
<svg version="1.0" xmlns="http://www.w3.org/2000/svg"
 width="544.000000pt" height="147.000000pt" viewBox="0 0 544.000000 147.000000"
 preserveAspectRatio="xMidYMid meet">

<g transform="translate(0.000000,147.000000) scale(0.100000,-0.100000)"
fill="#000000" stroke="none">
<path d="M902 1214 c-40 -104 -43 -208 -7 -309 14 -38 25 -87 25 -107 0 -27 4
-38 15 -38 8 0 24 -9 35 -20 27 -27 30 -26 30 16 0 53 15 72 78 100 73 32 93
51 86 80 -4 16 -1 23 13 27 15 3 15 5 -7 15 l-25 11 22 7 c29 8 20 24 -15 25
-29 0 -26 2 33 25 16 6 12 9 -20 14 -29 5 -35 8 -22 13 54 21 53 21 25 25 -34
4 -36 15 -5 30 l22 11 -22 0 c-23 1 -34 31 -11 31 22 0 -14 26 -60 43 -23 9
-73 20 -110 23 -68 7 -69 7 -80 -22z"/>
<path d="M745 1210 c-44 -10 -125 -34 -180 -53 -55 -19 -136 -40 -180 -46
-142 -20 -129 -8 -120 -113 11 -142 2 -134 147 -141 167 -7 409 -35 425 -48
17 -15 17 -61 -2 -107 -11 -26 -13 -38 -5 -40 7 -3 1 -9 -12 -16 -17 -9 -31
-36 -56 -111 -30 -91 -32 -107 -27 -180 4 -44 13 -97 20 -118 13 -39 7 -85
-15 -112 -17 -20 1 -25 51 -14 68 15 101 30 91 43 -11 14 -7 95 5 107 5 5 14
-10 22 -36 11 -36 11 -48 1 -60 -11 -13 -10 -14 5 -9 18 7 18 16 -6 105 -11
44 -10 51 24 130 38 92 53 150 65 252 7 53 6 67 -4 63 -7 -3 -15 2 -18 10 -3
8 -17 19 -32 24 -38 15 -76 -11 -72 -47 2 -15 -2 -28 -8 -30 -22 -7 -2 62 24
84 25 21 25 24 15 75 -6 29 -19 73 -28 98 -26 67 -20 212 11 293 8 23 -35 22
-141 -3z"/>
<path d="M4277 974 c-15 -16 -7 -53 14 -59 30 -10 58 19 43 43 -12 18 -45 28
-57 16z"/>
<path d="M4420 797 c0 -170 2 -186 23 -227 32 -63 91 -93 173 -88 76 5 127 39
156 106 54 121 -34 262 -162 262 -46 0 -99 -19 -119 -43 -25 -31 -31 -17 -31
78 0 88 -1 95 -20 95 -19 0 -20 -7 -20 -183z m250 -2 c68 -35 94 -140 51 -209
-71 -114 -246 -72 -259 62 -5 60 15 108 61 140 37 26 103 29 147 7z"/>
<path d="M1480 952 c0 -16 198 -467 205 -467 5 0 54 106 111 235 95 216 101
235 82 238 -11 2 -24 0 -28 -5 -6 -7 -99 -217 -148 -333 l-14 -34 -13 24 c-8
14 -44 98 -82 187 -59 142 -71 163 -90 163 -13 0 -23 -4 -23 -8z"/>
<path d="M3823 928 c64 -151 190 -444 193 -447 7 -8 14 6 110 225 117 268 113
254 82 254 -21 0 -32 -19 -103 -185 -44 -101 -83 -181 -88 -176 -4 4 -41 86
-82 182 -67 156 -77 174 -100 177 -26 3 -26 3 -12 -30z"/>
<path d="M2000 832 c-84 -46 -121 -156 -82 -244 56 -128 231 -146 317 -34 58
76 39 202 -40 262 -49 37 -142 45 -195 16z m176 -63 c59 -57 67 -128 22 -192
-58 -82 -188 -73 -234 15 -24 45 -22 112 3 146 59 80 145 93 209 31z"/>
<path d="M2455 836 c-80 -35 -128 -132 -105 -215 14 -53 61 -107 107 -122 56
-18 135 -7 177 25 l36 27 -1 -33 c-2 -52 -13 -80 -40 -100 -60 -45 -158 -42
-208 6 -15 14 -37 26 -50 26 -22 0 -22 -1 -5 -29 42 -71 173 -97 262 -52 67
34 76 57 82 201 8 172 -9 219 -92 261 -43 22 -119 24 -163 5z m146 -48 c51
-28 73 -75 66 -141 -4 -43 -10 -56 -42 -85 -36 -33 -40 -34 -102 -30 -60 4
-68 7 -99 41 -30 32 -34 43 -34 91 0 39 6 60 22 81 51 65 121 81 189 43z"/>
<path d="M3310 832 c-19 -10 -48 -38 -65 -61 -26 -37 -30 -52 -30 -104 1 -39
7 -74 18 -94 55 -104 213 -126 296 -41 57 59 28 86 -31 30 -33 -31 -46 -36
-97 -40 -56 -4 -61 -2 -95 29 -25 23 -39 46 -43 72 l-6 37 162 0 c160 0 161 0
161 23 -1 39 -37 103 -75 133 -49 37 -142 45 -195 16z m157 -42 c30 -18 70
-76 60 -86 -2 -3 -63 -3 -135 -2 l-131 3 16 34 c33 67 124 92 190 51z"/>
<path d="M4975 836 c-108 -48 -140 -212 -58 -299 40 -42 75 -57 133 -57 64 0
109 18 143 59 31 37 33 47 12 55 -10 3 -28 -8 -49 -31 -30 -33 -39 -37 -93
-41 -56 -4 -62 -2 -96 28 -20 17 -39 40 -42 51 -3 10 -8 28 -11 39 -5 19 -1
20 155 20 88 0 162 4 165 8 8 14 -14 84 -37 116 -40 57 -152 83 -222 52z m152
-47 c28 -18 63 -64 63 -84 0 -3 -61 -5 -135 -5 -74 0 -135 2 -135 5 0 4 7 19
15 36 34 65 126 88 192 48z"/>
<path d="M2810 728 c0 -134 10 -174 51 -214 28 -27 36 -29 104 -29 64 0 77 3
100 25 46 42 55 78 55 210 0 113 -1 120 -20 120 -19 0 -20 -7 -20 -110 0 -121
-12 -166 -51 -194 -46 -32 -134 -12 -161 37 -7 12 -14 75 -16 145 -4 111 -6
122 -23 122 -17 0 -19 -9 -19 -112z"/>
<path d="M4280 654 c0 -171 0 -175 21 -172 19 3 20 10 20 123 1 227 1 225 -21
225 -19 0 -20 -7 -20 -176z"/>
<path d="M737 547 c-19 -61 -20 -67 -9 -67 5 0 16 24 25 53 19 61 20 67 9 67
-5 0 -16 -24 -25 -53z"/>
</g>
</svg>
