<svg width="127" height="126" viewBox="0 0 127 126" fill="none" xmlns="http://www.w3.org/2000/svg">
<circle cx="63.3012" cy="62.8325" r="62.8325" fill="url(#paint0_linear_1_96)"/>
<path d="M116.486 47.5C115.844 50.2854 114.448 52.8521 112.441 54.9324C110.329 57.0911 107.685 58.6875 104.76 59.5697C101.836 60.4518 98.7285 60.5904 95.7335 59.9723C89.194 58.6893 86.1946 55.7413 84.9774 54.074C83.753 52.3336 82.0897 50.9294 80.1475 49.9961C74.6739 47.4794 69.0644 49.4513 65.8123 51.1368C64.9464 51.5868 63.9801 51.8223 62.9987 51.8223C62.0173 51.8223 61.051 51.5868 60.185 51.1368C56.933 49.4513 51.3235 47.4794 45.8499 49.9961C43.9078 50.9296 42.2446 52.3338 41.02 54.074C39.8163 55.7199 36.8684 58.6259 30.4758 59.9295C27.4528 60.5846 24.3074 60.469 21.3436 59.5937C18.3798 58.7185 15.6978 57.1133 13.5568 54.9332C11.5509 52.8524 10.1548 50.2855 9.5141 47.5C9.5141 47.5 7.23938 96.3028 60.4655 71.4422C61.2566 71.0735 62.1225 70.8822 62.9995 70.8822C63.8765 70.8822 64.7424 71.0735 65.5336 71.4422C118.766 96.3028 116.486 47.5 116.486 47.5Z" fill="url(#paint1_linear_1_96)" stroke="#E9C664" stroke-width="3" stroke-linecap="round" stroke-linejoin="round"/>
<defs>
<linearGradient id="paint0_linear_1_96" x1="63.3012" y1="0" x2="63.3012" y2="125.665" gradientUnits="userSpaceOnUse">
<stop stop-color="#262626"/>
<stop offset="1"/>
</linearGradient>
<linearGradient id="paint1_linear_1_96" x1="63" y1="47.5" x2="63" y2="78.5" gradientUnits="userSpaceOnUse">
<stop stop-color="#262626"/>
<stop offset="1"/>
</linearGradient>
</defs>
</svg>
