<svg width="135" height="134" viewBox="0 0 135 134" fill="none" xmlns="http://www.w3.org/2000/svg">
<g filter="url(#filter0_d_45001_36)">
<circle cx="67.434" cy="62.8325" r="62.8325" fill="url(#paint0_linear_45001_36)"/>
</g>
<path d="M96.0743 61.4287C97.1737 57.4629 97.2956 53.3092 96.4305 49.2913C95.5653 45.2734 93.7365 41.4997 91.0866 38.2645C88.4366 35.0294 85.0372 32.42 81.1531 30.6398C77.2691 28.8597 73.0054 27.9568 68.6943 28.0016C64.3832 28.0464 60.1412 29.0376 56.2989 30.898C52.4567 32.7584 49.1179 35.4378 46.5429 38.7272C43.9679 42.0167 42.2261 45.8274 41.4534 49.8623C40.6807 53.8973 40.8979 58.0475 42.0881 61.9895" stroke="#E9C664" stroke-width="3" stroke-linecap="round" stroke-linejoin="round"/>
<path d="M96.0781 60.7935C96.0781 60.7935 96.4008 94.0223 84.0049 100.024C79.3967 102.254 76.1421 103.963 73.8704 105.23C72.3935 106.051 70.7139 106.483 69.0035 106.483C67.2932 106.483 65.6136 106.051 64.1367 105.23C61.8658 103.963 58.6105 102.255 54.003 100.024C41.6071 94.0223 42.0919 61.3466 42.0919 61.3466C66.2972 52.0085 59.7687 29.4602 59.7687 29.4602" stroke="#E9C664" stroke-width="3" stroke-linecap="round" stroke-linejoin="round"/>
<path d="M96.0773 61.0579C96.0773 61.0579 70.159 61.1602 59.9346 42.1167" stroke="#E9C664" stroke-width="3" stroke-linecap="round" stroke-linejoin="round"/>
<defs>
<filter id="filter0_d_45001_36" x="0.601562" y="0" width="133.665" height="133.665" filterUnits="userSpaceOnUse" color-interpolation-filters="sRGB">
<feFlood flood-opacity="0" result="BackgroundImageFix"/>
<feColorMatrix in="SourceAlpha" type="matrix" values="0 0 0 0 0 0 0 0 0 0 0 0 0 0 0 0 0 0 127 0" result="hardAlpha"/>
<feOffset dy="4"/>
<feGaussianBlur stdDeviation="2"/>
<feComposite in2="hardAlpha" operator="out"/>
<feColorMatrix type="matrix" values="0 0 0 0 0 0 0 0 0 0 0 0 0 0 0 0 0 0 0.25 0"/>
<feBlend mode="normal" in2="BackgroundImageFix" result="effect1_dropShadow_45001_36"/>
<feBlend mode="normal" in="SourceGraphic" in2="effect1_dropShadow_45001_36" result="shape"/>
</filter>
<linearGradient id="paint0_linear_45001_36" x1="67.434" y1="0" x2="67.434" y2="125.665" gradientUnits="userSpaceOnUse">
<stop stop-color="#262626"/>
<stop offset="1"/>
</linearGradient>
</defs>
</svg>
